<?xml version="1.0" encoding="iso-8859-1"?>
<!-- Generator: Adobe Illustrator 19.0.0, SVG Export Plug-In . SVG Version: 6.00 Build 0)  -->
<svg version="1.1" id="Layer_1" xmlns="http://www.w3.org/2000/svg" xmlns:xlink="http://www.w3.org/1999/xlink" x="0px" y="0px"
	 viewBox="0 0 489.994 489.994" style="enable-background:new 0 0 489.994 489.994;" xml:space="preserve">
<g>
	<path style="fill:#F7931E;" d="M19.052,277.648c-0.692-7.196-1.061-14.485-1.061-21.859c0-126.476,104.154-229.005,232.635-229.005
		c75.981,0,143.448,35.863,185.903,91.326c-8.412-12.642-18.139-24.542-29.121-35.524c-43.381-43.381-101.061-67.272-162.411-67.272
		c-61.351,0-119.03,23.891-162.411,67.272c-34.796,34.795-57.037,78.792-64.484,126.5c-1.383,10.177-2.113,20.563-2.113,31.12
		C15.988,252.959,17.048,265.462,19.052,277.648z"/>
	<path style="fill:#FBB03B;" d="M250.626,26.783c-128.481,0-232.635,102.529-232.635,229.005c0,7.374,0.368,14.663,1.061,21.859
		c1.028,10.688,2.802,21.161,5.271,31.369c10.622,36.812,30.42,70.549,58.263,98.391c43.382,43.381,101.06,67.273,162.411,67.273
		s119.03-23.891,162.411-67.273c43.382-43.381,67.273-101.061,67.273-162.411c0-45.821-13.332-89.59-38.152-126.887
		C394.074,62.647,326.607,26.783,250.626,26.783z M244.997,451.713c-113.984,0-206.716-92.732-206.716-206.716
		S131.013,38.281,244.997,38.281c113.983,0,206.716,92.732,206.716,206.716S358.98,451.713,244.997,451.713z"/>
	<path style="fill:#29ABE2;" d="M250.997,61.997v37h-4.747v76.182l88.31-32.535l-48.226,130.898L246.25,288.31v101.687h4.747v37
		h-4.747v9.387c104.965-0.678,190.15-86.266,190.15-191.387S351.214,54.287,246.25,53.61v8.387H250.997z M389.997,243.997h37v15h-37
		V243.997z"/>
	<path style="fill:#1F80AA;" d="M246.25,426.997h-10.253v-37h10.253V288.31l-90.815,33.458l48.226-130.898l42.589-15.691V98.997
		h-10.253v-37h10.253V53.61c-0.418-0.003-0.834-0.016-1.253-0.016c-105.54,0-191.404,85.863-191.404,191.403
		S139.456,436.4,244.997,436.4c0.419,0,0.834-0.013,1.253-0.016V426.997z M100.997,258.997h-38v-15h38V258.997z M102.554,193.147
		l-15.824-5.263c3.013-9.058,6.841-17.92,11.378-26.34l14.68,7.91C108.706,177.029,105.263,185,102.554,193.147z M118.605,159.582
		l-14.032-9.009c17.172-26.748,41.45-47.954,70.209-61.322l7.029,15.121C155.922,116.407,134.066,135.498,118.605,159.582z"/>
	<polygon style="fill:#FBB03B;" points="214.547,205.611 226.287,215.541 233.206,208.622 268.58,243.997 264.617,247.96 
		275.918,257.518 308.721,168.48 215.586,202.794 	"/>
	<polygon style="fill:#F7931E;" points="256.788,255.789 221.414,220.414 226.287,215.541 214.547,205.611 181.272,295.931 
		274.408,261.618 275.918,257.518 264.617,247.96 	"/>
	<path d="M418.235,71.758C371.962,25.485,310.438,0,244.997,0S118.032,25.485,71.758,71.758S0,179.556,0,244.997
		s25.484,126.966,71.758,173.239s107.798,71.758,173.239,71.758s126.965-25.484,173.238-71.758
		c46.274-46.273,71.758-107.798,71.758-173.239C489.994,179.556,464.509,118.031,418.235,71.758z M18.101,209.086
		c7.447-47.708,29.689-91.705,64.484-126.5c43.382-43.381,101.06-67.272,162.411-67.272s119.03,23.891,162.411,67.272
		c10.982,10.982,20.709,22.882,29.121,35.524c24.82,37.298,38.152,81.067,38.152,126.887c0,61.351-23.891,119.03-67.273,162.411
		c-43.381,43.381-101.061,67.273-162.411,67.273c-61.351,0-119.03-23.891-162.411-67.273c-27.843-27.842-47.64-61.579-58.263-98.391
		c-5.929-20.545-9.01-42.044-9.01-64.02C15.313,232.854,16.264,220.859,18.101,209.086z"/>
	<path d="M244.997,38.281c-113.984,0-206.716,92.732-206.716,206.716s92.732,206.716,206.716,206.716
		c113.983,0,206.716-92.732,206.716-206.716S358.98,38.281,244.997,38.281z M53.594,244.997
		c0-105.54,85.863-191.403,191.404-191.403c0.419,0,0.834,0.013,1.253,0.016c104.965,0.678,190.15,86.266,190.15,191.387
		s-85.186,190.709-190.15,191.387c-0.418,0.003-0.834,0.016-1.253,0.016C139.457,436.4,53.594,350.537,53.594,244.997z"/>
	<path d="M334.559,142.644l-88.31,32.535L203.66,190.87l-48.226,130.898l90.815-33.458l40.084-14.768L334.559,142.644z
		 M308.721,168.48l-32.803,89.038l-1.51,4.099l-93.136,34.313l33.275-90.32l1.038-2.818L308.721,168.48z"/>
	<polygon points="256.788,255.789 264.617,247.96 268.58,243.997 233.206,208.622 226.287,215.541 221.414,220.414 	"/>
	<polygon points="250.997,61.997 246.25,61.997 235.997,61.997 235.997,98.997 246.25,98.997 250.997,98.997 	"/>
	<polygon points="250.997,389.997 246.25,389.997 235.997,389.997 235.997,426.997 246.25,426.997 250.997,426.997 	"/>
	<rect x="62.997" y="243.997" width="38" height="15"/>
	<rect x="389.997" y="243.997" width="37" height="15"/>
	<path style="fill:#FFFFFF;" d="M174.781,89.252c-28.759,13.368-53.037,34.574-70.209,61.322l14.032,9.009
		c15.462-24.084,37.318-43.175,63.206-55.21L174.781,89.252z"/>
	<path style="fill:#FFFFFF;" d="M86.73,187.884l15.824,5.263c2.709-8.147,6.152-16.119,10.234-23.693l-14.68-7.91
		C93.571,169.964,89.743,178.826,86.73,187.884z"/>
</g>
<g>
</g>
<g>
</g>
<g>
</g>
<g>
</g>
<g>
</g>
<g>
</g>
<g>
</g>
<g>
</g>
<g>
</g>
<g>
</g>
<g>
</g>
<g>
</g>
<g>
</g>
<g>
</g>
<g>
</g>
</svg>
